<svg width="42" height="38" viewBox="0 0 42 38" fill="none" xmlns="http://www.w3.org/2000/svg">
<path fill-rule="evenodd" clip-rule="evenodd" d="M12.8634 23.3389L10.4315 28.3575H41.1694C41.3589 28.3576 41.5432 28.4335 41.6815 28.5729C41.8196 28.712 41.9004 28.9032 41.9025 29.106C41.9008 29.5296 41.5605 29.8532 41.1749 29.8532H33.6525L34.8248 31.446C35.3467 32.155 35.6383 33.0239 35.6383 33.9126C35.6383 36.1793 33.8226 38 31.6173 38C29.412 38 27.5962 36.1783 27.5962 33.9117C27.5955 33.0221 27.8809 32.1578 28.407 31.4496L29.5933 29.8532H17.7427L18.915 31.446C19.4369 32.155 19.7285 33.0239 19.7285 33.9126C19.7285 36.1792 17.9127 38 15.7075 38C13.5022 38 11.6864 36.1783 11.6864 33.9117C11.6857 33.0221 11.9709 32.1578 12.4972 31.4496L13.6835 29.8532H8.62122C8.35144 29.8532 8.10254 29.702 7.97498 29.4457L7.97144 29.4387C7.90906 29.3159 7.88159 29.177 7.8927 29.0379C7.90393 28.8988 7.95325 28.7668 8.03369 28.6569L8.05957 28.6215L11.9449 22.1954L9.02368 7.86432L7.70251 1.50067H0.727539C0.538818 1.50067 0.355225 1.42487 0.217651 1.28558C0.079834 1.14581 0 0.953552 0 0.750366C0 0.547119 0.079834 0.354858 0.217651 0.215088C0.355225 0.0758057 0.538818 0 0.727539 0H8.28845C8.62097 0 8.93115 0.246582 9.00256 0.591187L9.43347 2.64508L41.1699 2.75195C41.2709 2.75269 41.371 2.77557 41.4633 2.81952C41.5 2.83698 41.5352 2.85767 41.5685 2.88129C41.6191 2.91724 41.6654 2.96002 41.7059 3.00891C41.8386 3.17047 41.897 3.38892 41.8589 3.60675L38.4923 22.6995C38.429 23.0546 38.1316 23.2932 37.8031 23.2932L12.8634 23.3389ZM40.335 4.19708L9.73523 4.09479L13.436 21.8931L37.2233 21.8505L40.335 4.19708ZM13.161 33.9126C13.161 35.3152 14.2914 36.4795 15.7075 36.4795C16.3871 36.4795 17.0363 36.2058 17.5127 35.723C17.9888 35.2407 18.2539 34.5892 18.2539 33.9126C18.2539 32.5099 17.1237 31.3457 15.7075 31.3457C14.2914 31.3457 13.161 32.5099 13.161 33.9126ZM29.0708 33.9126C29.0708 35.3152 30.2012 36.4795 31.6173 36.4795C32.2969 36.4795 32.946 36.2058 33.4225 35.723C33.8986 35.2407 34.1637 34.5892 34.1637 33.9126C34.1637 32.5099 33.0334 31.3457 31.6173 31.3457C30.2012 31.3457 29.0708 32.5099 29.0708 33.9126Z" fill="white"/>
</svg>
