<svg width="37" height="37" viewBox="0 0 37 37" fill="none" xmlns="http://www.w3.org/2000/svg">
<path d="M26.5705 1H10.4295C5.22122 1 1 5.22197 1 10.4295V26.5705C1 31.7788 5.22197 36 10.4302 36H26.5698C31.778 36 36 31.778 36 26.5698V10.4295C36 5.22122 31.778 1 26.5698 1H26.5705Z" stroke="white" stroke-width="2" stroke-miterlimit="10"/>
<path d="M18.4999 26.9484C23.1659 26.9484 26.9484 23.1659 26.9484 18.5C26.9484 13.8341 23.1659 10.0516 18.4999 10.0516C13.834 10.0516 10.0515 13.8341 10.0515 18.5C10.0515 23.1659 13.834 26.9484 18.4999 26.9484Z" stroke="white" stroke-width="2" stroke-miterlimit="10"/>
<path d="M28.7586 10.0516C29.7584 10.0516 30.5688 9.24113 30.5688 8.24141C30.5688 7.24168 29.7584 6.43124 28.7586 6.43124C27.7589 6.43124 26.9485 7.24168 26.9485 8.24141C26.9485 9.24113 27.7589 10.0516 28.7586 10.0516Z" fill="white"/>
</svg>
