<svg width="28" height="19" viewBox="0 0 28 19" fill="none" xmlns="http://www.w3.org/2000/svg">
<path d="M27 0H1C0.446875 0 0 0.385937 0 0.863636V18.1364C0 18.6141 0.446875 19 1 19H27C27.5531 19 28 18.6141 28 18.1364V0.863636C28 0.385937 27.5531 0 27 0ZM25.75 2.99034V17.0568H2.25V2.99034L1.3875 2.41009L2.61562 1.04716L3.95312 1.94588H24.05L25.3875 1.04716L26.6156 2.41009L25.75 2.99034ZM24.05 1.94318L14 8.69034L3.95 1.94318L2.6125 1.04446L1.38438 2.40739L2.24687 2.98764L12.9219 10.1558C13.2289 10.3618 13.6066 10.4736 13.9953 10.4736C14.3841 10.4736 14.7618 10.3618 15.0688 10.1558L25.75 2.99034L26.6125 2.41009L25.3844 1.04716L24.05 1.94318Z" fill="black"/>
</svg>
